<svg width="24" height="24" viewBox="0 0 24 24" fill="none" xmlns="http://www.w3.org/2000/svg">
    <mask id="mask0_1_21" style="mask-type:alpha" maskUnits="userSpaceOnUse" x="0" y="0" width="24" height="24">
        <rect width="24" height="24" fill="#D9D9D9"/>
    </mask>
    <g mask="url(#mask0_1_21)">
        <path d="M9 6H11V4H9V6ZM13 6V4H15V6H13ZM9 14V12H11V14H9ZM17 10V8H19V10H17ZM17 14V12H19V14H17ZM13 14V12H15V14H13ZM17 6V4H19V6H17ZM11 8V6H13V8H11ZM5 20V4H7V6H9V8H7V10H9V12H7V20H5ZM15 12V10H17V12H15ZM11 12V10H13V12H11ZM9 10V8H11V10H9ZM13 10V8H15V10H13ZM15 8V6H17V8H15Z" fill="#1C1B1F"/>
    </g>
</svg>
